<?xml version="1.0" encoding="UTF-8"?>
<svg id="Layer_1" data-name="Layer 1" xmlns="http://www.w3.org/2000/svg" version="1.1" viewBox="0 0 800 800">
  <defs>
    <style>
      .cls-1 {
        fill: #fff;
        stroke-width: 0px;
      }
    </style>
  </defs>
  <g id="_2069a460dcf28295e231f3111e0439b1" data-name="2069a460dcf28295e231f3111e0439b1">
    <path class="cls-1" d="M410.9,130.1c-3-15.3.8-31.1,11.4-47.5,12.5-19.7,27.2-30.5,44.1-32.8,21.9-2.5,42.2,9.2,61.1,34.4,17.5,23.6,25.3,45.8,23.3,66.1-.3,12.2-18.3,19.7-54.1,22.2-28,2.2-48.3-.6-61.4-8.6-13.6-8-21.6-19.4-24.4-33.9ZM797.8,747.7c-1.9,4.2-8.9,3.6-20.8-1.7-20.3-9.7-42.7-24.4-68-44.4-28-22.2-44.4-39.7-48.9-52.5-.8-3.1-.5-6.9,1.1-11.9l5.3-14.2c3.6-13-1.1-26.1-14.2-39.1-6.4-6.4-15-12.5-25.5-18.3-24.7-13-60.2-24.1-107.1-33-48.6-9.2-94.9-14.4-139.1-15.5l-53.6,2.8c-14.2,16.4-27.8,31.6-40.8,45.8-11.1,11.7-21.9,22.5-32.5,32.5-42.5,38-83.8,66.9-124.4,86.9-55.2,26.9-96.6,34.7-124.6,22.8-3.6-2.5-4.7-6.7-3.6-12.5l5-15.5c19.2-41.6,50.5-79.7,93.5-114.1,3.6-3,7.5-5.8,11.1-8.6,34.1-25.3,80.2-51.9,138.2-79.4,38-16.4,69.4-27.2,93.8-32.5l23-31.9c9.2-11.4,18.9-22.2,28.6-32.5,20.8-22.5,42.2-43.3,64.7-61.9,1.9-.8,2.2-1.9,1.1-3.3-11.4-6.4-30-18.3-55.2-35.8-21.7-14.7-38.6-25-50.8-30.5-38.3-17.2-77.4-12.2-117.7,15-24.2,16.1-37.2,33.9-38.6,53.3l-1.4,23.9c1.4,6.7-20,17.8-63.8,33.3-8.1,2.5-14.7,4.7-20.3,6.1-9.7,1.9-16.4,2.2-19.7.6l-1.1-.6-3-1.9c-3.9-7.8,14.4-34.4,54.7-80.2,2.8-3.1,5.6-6.1,8.4-9.1h0c0-.1,0-.2,0-.2,72.9-76.6,158.8-106.3,257.6-88.7,27.2,4.7,72.2,21.4,135.2,49.7,6.9-6.9,18.9-15.3,35.3-24.7,20.8-11.9,38-18.3,51.1-18.6,28.6-.3,46.6,10.5,54.1,33,4.4,13.6-5.6,32.8-30.3,57.5-25.5,26.1-49.7,42.5-72.5,49.1-28.6,8.6-59.7,3.6-92.7-14.4-14.7,11.4-31.4,27.8-49.4,48.6-.8.8-1.7,1.9-2.5,2.8l-42.7,51.1-.6,3.6,29.4-1.1c21.1.6,42.5,4.2,64.4,11.1,59.7,19.2,109.6,42.7,149.9,70.8,19.2,13.6,37.8,29.1,55.2,46.6,18,18.3,35.5,38.9,51.9,61.3,14.4,20,26.7,40.2,36.9,60.5,14.4,28.3,19.7,48.3,15.5,60.2ZM579.1,261.4c5.3,4.2,17.8,5.8,38,5,22.5-.8,37.8-5.3,46.4-13.9,4.2-4.2,4.2-8.3-.6-12.2-5.3-4.7-15-5.8-28.9-3.9-11.9,1.9-24.7,6.1-38.6,12.5-13.6,6.4-19.2,10.5-16.4,12.5ZM276.3,527.3l-6.4-.8c-19.2,3.9-36.9,8.3-53.3,13.3-23,7.5-44.4,16.1-64.1,25.8-15.8,7.5-30.5,15.8-44.1,24.7-43.3,28-63.3,55.2-59.7,81.6l4.2,4.7c11.4,7.5,33.9,1.7,67.2-17.5,45.3-26.4,85.8-57.5,121.6-93.5,11.9-12.2,23.6-25,34.7-38.3Z"/>
  </g>
</svg>