<?xml version="1.0" encoding="UTF-8"?>
<svg id="Layer_1" data-name="Layer 1" xmlns="http://www.w3.org/2000/svg" version="1.1" viewBox="0 0 2500 2500">
  <defs>
    <style>
      .cls-1 {
        fill: #fff;
        stroke-width: 0px;
      }
    </style>
  </defs>
  <path class="cls-1" d="M1250,59.4c657.1,0,1190.6,534.7,1190.6,1190.6s-534.7,1190.6-1190.6,1190.6S59.4,1907.1,59.4,1250,594.1,59.4,1250,59.4M1250,0C559.6,0,0,559.6,0,1250s559.6,1250,1250,1250,1250-559.6,1250-1250S1941.5,0,1250,0Z"/>
  <path class="cls-1" d="M1163.3,501.4s-281.6,79.6-534.7,348.1-285.2,459.8-285.2,602.4c55.8-95.1,400.4-619.1,481.2-369.5v596.5s-4.8,80.8-128.3,48.7c36.8,68.9,226.9,238.8,570.3,273.3,78.4-78.4,180.6-191.3,180.6-191.3l171.1,145s307.7-199.6,428.9-489.5c-112.9,73.7-249.5,244.8-320.8,124.8v-726s183-274.5,211.5-287.5c-72.5,13.1-327.9,97.4-462.2,270.9-38-41.6-143.8-42.8-143.8-42.8,0,0,83.2,68.9,84.4,131.9s0,588.2,0,648.8c-57,58.2-117.6,89.1-156.8,89.1-91.5,0-117.6-32.1-142.6-64.2v-762.8s-45.2,38-80.8-23.8-36.8-181.8,127.1-322Z"/>
</svg>